<svg xmlns="http://www.w3.org/2000/svg" viewBox="0 0 215 48"><path d="M48.7 40.7h-1.3l-1.9 5.9h-.1l-1.9-5.9h-1.2s-.1 0 0 .1l2.3 7h2l2.1-7.1c.1.1 0 0 0 0zm-17.4.1s0-.1 0 0h-1.2v4.7c0 .8-.6 1.4-1.4 1.4s-1.4-.6-1.4-1.4v-4.6h-1.1v4.7c0 1.4 1.2 2.6 2.6 2.6 1.4 0 2.6-1.2 2.6-2.6v-4.8zm40.1-.1s0 .1 0 0l-.1 1.1h2.1v5.9h1.2s.1 0 .1-.1v-5.9s0-.1.1-.1h1.9s.1 0 .1-.1v-1h-5.4zm-33.1 0h-1.1s-.1 0-.1.1v5.3s-.1.1-.1 0l-2.8-5.3h-1.6V48h1.2v-5.3c0-.1.1-.1.1 0l2.8 5.3h1.6v-7.3c.1.1 0 0 0 0zm31.1 0c-.1 0-.1.1 0 0v7.1h1.1v-7.2h-1.1zm-29.4 0s0 .1 0 0v7.1h1.2v-7.2H40zm14.8 6.1H51v-2h3.2v-1H51V42h3.8v-1h-5v7.2H55l-.2-1.4c.1 0 .1 0 0 0zm10.5-3.2c-.7-.1-1.5-.2-1.5-.9 0-.5.6-1 1.3-1 .8 0 1.3.5 1.3.9h1.3v-.1c0-1.3-1.2-2.1-2.6-2.1-1.3 0-2.5.8-2.5 2.1 0 1.4 1.1 1.9 2.7 2.1 1 .1 1.5.5 1.5 1 0 .6-.6 1.1-1.5 1.1s-1.5-.5-1.5-.9v-.1h-1.2v.1c0 1 .8 2.1 2.8 2.1 1.7 0 2.7-.9 2.7-2.2-.1-1.7-1.7-2-2.8-2.1zm-4.9 1.3c.7-.4 1.1-1.1 1.1-1.9 0-1.2-1-2.2-2.1-2.2h-3V48h1.3v-2.7h1.6v.1l1.2 2.7h1.2s.1 0 .1-.1l-1.4-3.1c-.1 0-.1 0 0 0zm-1.1-.9h-1.7v-2.1h1.7c.5 0 1 .5 1 1.1 0 .5-.5 1-1 1zM82 40.7s0 .1 0 0l-1.7 2.9h-.1l-1.6-2.9s0-.1-.1-.1h-1.3s-.1 0 0 .1l2.4 4.1v3h1.3v-2.9l2.4-4.1v-.1H82zm8-.1c-2.1 0-3.2 1.5-3.2 3.7S87.9 48 90 48s3.2-1.5 3.2-3.7c0-2.1-1-3.7-3.2-3.7zm0 6.3c-1.3 0-2-1-2-2.6s.7-2.6 2-2.6 2 1 2 2.6-.7 2.6-2 2.6zm13.1-6.2s0 .1 0 0l-.1 1.1h2.1v5.9h1.1v-6.1h1.9v-1.1h-5zm6.2 0s0 .1 0 0l-.1 7.1h5.2v-1s0-.1-.1-.1h-3.8v-2h3.3v-1h-3.3v-1.8h3.9v-1h-5.1zm-14.7 0s0 .1 0 0l-.1 7.1h1.3v-3h3.4v-1s0-.1-.1-.1h-3.3v-1.8h3.8v-1h-5zm32.3 0s0 .1 0 0l-.1 2.9H124v-2.9h-1.2v7.1h1.2v-3h2.9v3h1.1v-7.2h-1.1zm-8.4 1.1c1.3 0 1.6 1 1.7 1.3h1.3c0-.6-.8-2.4-3-2.4-2.1 0-3.2 1.6-3.2 3.8 0 2.2 1.1 3.6 3.2 3.6 2.4 0 3-2 3-2.4v-.1h-1.2s-.1 0-.1.1c-.1.3-.4 1.3-1.8 1.3-1.2 0-1.9-.9-1.9-2.5.1-1.7.8-2.7 2-2.7zm16.8-1.1h-1.1v5.4s-.1.1-.1 0l-2.8-5.3h-1.6V48h1.2v-5.3c0-.1.1-.1.1 0l2.8 5.3h1.7l-.2-7.3c.1.1.1 0 0 0zm4.6-.1c-2.1 0-3.2 1.5-3.2 3.7s1.1 3.7 3.2 3.7 3.2-1.5 3.2-3.7c0-2.1-1.1-3.7-3.2-3.7zm0 6.3c-1.3 0-2-1-2-2.6s.7-2.6 2-2.6 2 1 2 2.6c-.1 1.6-.7 2.6-2 2.6zm5.8-.1c-.1 0-.1 0 0 0v-6h-1.2v7.1h4.7v-1.1h-3.5zm7.1-6.2c-2.1 0-3.2 1.5-3.2 3.7s1.1 3.7 3.2 3.7 3.2-1.5 3.2-3.7c0-2.1-1.1-3.7-3.2-3.7zm0 6.3c-1.3 0-2-1-2-2.6s.7-2.6 2-2.6 2 1 2 2.6c-.1 1.6-.8 2.6-2 2.6zm7.4-3.1c-.1 0-.1 0 0 0V45h1.9c-.1 1.5-1 1.8-2 1.8-1.3 0-2-1-2-2.6 0-1.5.7-2.6 2-2.6.7 0 1.3.3 1.6.9 0 0 0 .1.1.1h1.2s.1 0 .1-.1c-.3-1.2-1.2-2-3-2-2 0-3.2 1.5-3.2 3.7s1.2 3.7 3.2 3.7c.8 0 1.4-.3 1.9-.7h.1l.1.5h1v-4h-3zm15.5-.2c-.7-.1-1.5-.2-1.5-.9 0-.5.6-1 1.3-1 .8 0 1.3.5 1.3.9h1.3v-.1c0-1.3-1.2-2.1-2.6-2.1-1.3 0-2.5.8-2.5 2.1 0 1.4 1.1 1.9 2.7 2.1 1 .1 1.5.5 1.5 1 0 .6-.6 1.1-1.5 1.1s-1.5-.5-1.5-.9c0 0 0-.1-.1-.1h-1.2v.1c0 1 .8 2.1 2.8 2.1 1.7 0 2.7-.9 2.7-2.2 0-1.7-1.7-2-2.7-2.1zm8.1-2.9s-.1.1 0 0l-1.7 2.9h-.1l-1.6-2.9s0-.1-.1-.1H179s-.1 0 0 .1l2.4 4.1v3h1.3v-2.9l2.4-4.1v-.1h-1.3zm27.6 0s0 .1 0 0l-1.7 2.9h-.1l-1.6-2.9s0-.1-.1-.1h-1.3s-.1 0 0 .1l2.4 4.1v3h1.3v-2.9l2.4-4.1v-.1h-1.3zm-10.8 0s-.1.1 0 0l-.1 7.1h5.1v-1s0-.1-.1-.1h-3.8v-2h3.2v-1h-3.3v-1.8h3.8v-1h-4.8zm-1.6 0h-1.1v5.4s-.1.1-.1 0l-2.8-5.3h-1.6V48h1.2v-5.3c0-.1.1-.1.1 0l2.8 5.3h1.7l-.2-7.3c.1.1.1 0 0 0zm-10.2 0h-2.6s-.1 0-.1.1v7.1h2.7c2.1 0 3.2-1.4 3.2-3.5s-1.1-3.6-3.2-3.7zm0 6.1h-1.4V42h1.4c1.2 0 1.9 1 1.9 2.5 0 1.4-.7 2.3-1.9 2.3zm-20.4-6.1s-.1.1 0 0l-1.7 2.9h-.1l-1.6-2.9s0-.1-.1-.1h-1.3s-.1 0 0 .1l2.4 4.1v3h1.3v-2.9l2.4-4.1v-.1h-1.3zm-22.7-15.2h-3.8c-.1 0-.2.1-.3.2-.5 1.1-1.7 1.4-3.1 1.4-2.3 0-3.8-1.5-3.8-3.3 0-.1.1-.2.2-.2h11.2c.1 0 .1-.1.2-.2.1-.4.1-.7.2-1.3 0-5-3.2-8.5-7.8-8.5-4.7 0-7.9 3.4-7.9 8.5 0 5 3.2 8.5 7.9 8.5 3.7 0 6.6-1.9 7.3-5-.1-.1-.2-.1-.3-.1zm-7.2-8.2c2.6 0 3.7 1.8 3.7 3.1 0 .1 0 .1-.1.1h-7.3c-.1 0-.1 0-.1-.1 0-1.3 1.2-3.1 3.8-3.1zm-31.9 4.1v8.8c0 .1.1.2.2.2h3.5c.1 0 .1-.1.1-.2v-8.8c0-4.1-1.7-7.7-6.8-7.7-1.4 0-3.2.8-3.8 1.5-.1.2-.3.1-.4 0l-.4-1c0-.1-.1-.2-.3-.2h-3.1c-.1 0-.2.1-.2.2v16c0 .1.1.1.2.1h3.5c.1 0 .2-.1.2-.2V21c0-1.9 1-3.8 3.5-3.8 2.7.1 3.8 2.2 3.8 4.2zm52.3-1.2h-3c-4.7 0-7 2.4-7 5.2 0 2.9 2 5.2 6.4 5.2 2.5 0 4.2-1 5.1-1.9.1-.1.2-.1.3 0 .6.9 1.5 1.5 3.2 1.5h1.6c.1 0 .2-.1.2-.2v-2.9c0-.1-.1-.2-.2-.2h-.5c-.7 0-1.2-.4-1.2-1v-6.2c0-4-2.8-6.1-7.2-6.1-3.8 0-7.1 1.9-7.1 5.7 0 .1.1.2.2.2h3.5c.1 0 .2-.1.2-.2.1-1.1.8-2.1 3.3-2.1 3.2 0 3.4 1.6 3.4 2.3-.2.4-.6.7-1.2.7zm1 3.4c0 1.6-1.4 3.5-4.7 3.5-1.9 0-2.5-1-2.5-1.6 0-.8.5-2 3.3-2h3.7c.1 0 .2 0 .2.1zm-71.8 6.7h3.5c.1 0 .2-.1.2-.2V7.8c0-.1-.1-.2-.2-.2h-3.5c-.1.1-.1.1-.1.2v22.3c0 .1 0 .2.1.2zm99.4.3c4.1 0 6.9-2 7.6-5.7 0-.1-.1-.2-.2-.2h-3.6c-.1 0-.2.1-.2.2-.5 1.4-1.4 2.3-3.5 2.3-2.7 0-4-2.2-4-5.1s1.3-5.1 4-5.1c1.9 0 2.9.8 3.5 2.3 0 .1.1.2.2.2h3.6c.1 0 .2 0 .2-.2-.5-3.4-3.4-5.7-7.5-5.7-5 0-7.9 3.4-7.9 8.5-.1 5.1 2.8 8.5 7.8 8.5zm-59.4-5.3c0-4.6-4.6-4.8-7.5-5.1-1.5-.2-2.9-.4-2.9-1.4 0-.8.9-1.5 2.9-1.5 2.3 0 3.2 1.2 3.2 2.1 0 .1.1.2.2.2h3.6c.1 0 .1-.1.1-.2 0-3.7-3-5.7-7-5.7s-6.7 2.3-6.7 5c0 4.1 3.7 4.6 7 5 1.3.1 3.3.1 3.3 1.5 0 1.6-1.9 1.8-3.3 1.8-2.3 0-3.3-1.1-3.3-2.1 0-.1-.1-.2-.2-.2h-3.7c-.1 0-.2.1-.2.2 0 2.9 2.5 5.7 7.3 5.7 4.4 0 7.2-1.9 7.2-5.3zm47.8-7.9h2.1c.1 0 .2-.1.2-.2v-3.4c0-.1-.1-.2-.2-.2h-1.8c-1.5 0-2.6.6-3.6 1.5-.1.1-.2.1-.3-.1l-.3-1c-.1-.1-.1-.2-.3-.2h-3.1c-.1 0-.1.1-.1.2v16c0 .1.1.2.1.2h3.6c.1 0 .2-.1.2-.2v-9c-.1-1.9.9-3.6 3.5-3.6zm30.2-3.7c-2 0-3.5 1.2-3.9 1.5-.2.2-.3.1-.3-.1V7.8c0-.1-.1-.2-.2-.2h-3.5c-.1 0-.2.1-.2.2v22.3c0 .1.1.2.2.2h3.5c.1 0 .2-.1.2-.2V21c0-1.9 1-3.7 3.5-3.7s3.6 2.1 3.6 4v8.8c0 .1.1.2.2.2h3.5c.1 0 .2-.1.2-.2v-8.8c0-4-2.1-7.6-6.8-7.6zM60.5 7.3H45.9v4.4h4.9v18.4h5V11.7h4.9V7.3zM9.1 17.2l1.6 1.6 2.2-2.2-2.2-2.2c-.9-.9-2.3-.9-3.2 0L0 22l2.2 2.2 6.9-7zm-.5 9.1l-2.2-2.2-1.6 1.6-1.6-1.6L1 26.3l2.2 2.2c.9.9 2.3.9 3.2 0l2.2-2.2zm-4.3-9.6l-2.2-2.2L0 16.7l2.2 2.2 2.1-2.2zm4.8 13.4l-1.6-1.6-2.2 2.2 2.2 2.2c.9.9 2.3.9 3.2 0l2.2-2.2-2.2-2.2-1.6 1.6zm64.3-13.6l-2.8-1.1c-1.6-.6-1.8-1.6-1.8-2.3 0-1.3.9-2.2 2.5-2.2s2.6 1 2.6 2.7v.6h4.7v-.5c0-4.2-2.9-6.9-7.3-6.9-4.5 0-7.2 3.1-7.2 6.6 0 3.3 1.7 5.3 5 6.6l3.2 1.2c1.4.6 2 1.3 2 2.5 0 1.6-1 2.5-2.9 2.5s-3-.9-3-2.7v-.8h-4.7v.8c0 4.2 3.3 6.9 7.7 6.9 4.9 0 7.6-3 7.6-7.1-.1-4.2-2.8-5.7-5.6-6.8zM14 22l2.2 2.2 2.2-2.2-2.2-2.2L14 22zm22.5 1c0 1.8-1.1 3-2.8 3-1.7 0-2.7-1.1-2.7-3V7.3h-5v15.8c0 4.5 3.1 7.3 7.7 7.3s7.7-2.8 7.7-7.3V7.3h-5V23zm-23.1 2.8l-1.6-1.6-2.2 2.2 2.2 2.2c.9.9 2.3.9 3.2 0l2.2-2.2-2.2-2.2-1.6 1.6zM12 2.9L9.1 0 6.3 2.9l2.9 2.9L12 2.9zM9.1 21.5l-1.6-1.6L5.3 22l2.2 2.2c.9.9 2.3.9 3.2 0l7.5-7.5-2.2-2.2-6.9 7zM5.5 9.4h2.1v4.1c.9-.6 2.1-.6 3 0V9.4h2.1l1.3 1.4 2.9-2.9L14.1 5l-1.4 1.3H5.5L4.2 5 1.3 7.9l2.9 2.9 1.3-1.4z"/></svg>